<?xml version="1.0" encoding="UTF-8" standalone="no"?>
<!-- License Agreement at http://iconmonstr.com/license/ -->

<svg
   xmlns:dc="http://purl.org/dc/elements/1.1/"
   xmlns:cc="http://creativecommons.org/ns#"
   xmlns:rdf="http://www.w3.org/1999/02/22-rdf-syntax-ns#"
   xmlns:svg="http://www.w3.org/2000/svg"
   xmlns="http://www.w3.org/2000/svg"
   xmlns:sodipodi="http://sodipodi.sourceforge.net/DTD/sodipodi-0.dtd"
   xmlns:inkscape="http://www.inkscape.org/namespaces/inkscape"
   version="1.1"
   x="0px"
   y="0px"
   width="412"
   height="412"
   viewBox="0 0 412 412"
   xml:space="preserve"
   id="svg2"
   inkscape:version="0.48.4 r9939"
   sodipodi:docname="icon.svg"
   inkscape:export-filename="D:\Projects\SvgToXaml\SvgToXaml\Images\icon16.png"
   inkscape:export-xdpi="3.5"
   inkscape:export-ydpi="3.5"><metadata
   id="metadata9"><rdf:RDF><cc:Work
       rdf:about=""><dc:format>image/svg+xml</dc:format><dc:type
         rdf:resource="http://purl.org/dc/dcmitype/StillImage" /><dc:title></dc:title></cc:Work></rdf:RDF></metadata><defs
   id="defs7" /><sodipodi:namedview
   pagecolor="#ffffff"
   bordercolor="#666666"
   borderopacity="1"
   objecttolerance="10"
   gridtolerance="10"
   guidetolerance="10"
   inkscape:pageopacity="0"
   inkscape:pageshadow="2"
   inkscape:window-width="1466"
   inkscape:window-height="858"
   id="namedview5"
   showgrid="false"
   inkscape:zoom="0.4609375"
   inkscape:cx="827.90073"
   inkscape:cy="524.12445"
   inkscape:window-x="0"
   inkscape:window-y="0"
   inkscape:window-maximized="0"
   inkscape:current-layer="svg2"
   fit-margin-top="0"
   fit-margin-left="0"
   fit-margin-right="0"
   fit-margin-bottom="0" />
<path
   d="m 292.80426,102.08475 -172.605,0 -85.967004,96.562 171.666004,212.438 171.666,-211.23 z m -161.273,103 52.171,123.905 -100.116004,-123.905 z m 130.108,0 -55.741,132.371 -55.741,-132.371 z m -103.687,-17.167 47.946,-47.946 47.945,47.946 z m 122.313,17.167 48.801,0 -101.273,124.626 z m 41.508,-17.167 -43.654,0 -51.5,-51.5 50.511,0 z m -186.185,-51.5 49.589,0 -51.5,51.5 -43.922004,0 z"
   inkscape:connector-curvature="0"
   id="diamond-9"
   sodipodi:nodetypes="cccccccccccccccccccccccccccccccc"
   style="fill:#008080" />
<path
   d="m 360.5,17.167 c -7.527,24.686 -26.84,43.99 -51.5,51.509 24.66,7.527 43.973,26.838998 51.5,51.491 C 368.027,95.506998 387.34,76.203 412,68.676 387.34,61.14 368.027,41.852 360.5,17.167 z M 34.316,51.5 C 29.304,67.929 16.429,80.812 0,85.825 16.462,90.853998 29.304,103.721 34.35,120.166 39.363,103.729 52.238,90.853998 68.666,85.825 52.238,80.829 39.363,67.938 34.316,51.5 z M 351.9,326.166 c -6.271,20.537 -22.364,36.647 -42.9,42.918 20.586,6.27 36.63,22.363 42.934,42.916 6.27,-20.553 22.363,-36.646 42.9,-42.916 C 374.297,362.83 358.203,346.72 351.9,326.166 z M 188.833,0 C 183.82,16.438 170.945,29.312 154.5,34.325 170.962,39.354 183.821,52.221 188.867,68.666 193.88,52.22 206.755,39.354 223.166,34.325 206.754,29.321 193.879,16.446 188.833,0 z M 51.483,309 c -7.46,24.644 -26.84,43.956 -51.483,51.5 24.71,7.544 44.023,26.856 51.5,51.5 7.544,-24.644 26.856,-43.956 51.483,-51.5 -24.627,-7.51 -43.939,-26.856 -51.5,-51.5 z"
   inkscape:connector-curvature="0"
   id="diamond-9-7"
   sodipodi:nodetypes="ccccccccccccccccccccccccc"
   style="fill:#cb8a00;fill-opacity:1" /></svg>