<?xml version="1.0" encoding="UTF-8" standalone="no"?>
<!-- Created with Inkscape (http://www.inkscape.org/) -->

<svg
   xmlns:dc="http://purl.org/dc/elements/1.1/"
   xmlns:cc="http://creativecommons.org/ns#"
   xmlns:rdf="http://www.w3.org/1999/02/22-rdf-syntax-ns#"
   xmlns:svg="http://www.w3.org/2000/svg"
   xmlns="http://www.w3.org/2000/svg"
   xmlns:sodipodi="http://sodipodi.sourceforge.net/DTD/sodipodi-0.dtd"
   xmlns:inkscape="http://www.inkscape.org/namespaces/inkscape"
   width="40"
   height="40"
   id="svg2"
   sodipodi:version="0.32"
   inkscape:version="0.48.4 r9939"
   version="1.0"
   sodipodi:docname="JOG.svg"
   inkscape:output_extension="org.inkscape.output.svg.inkscape"
   inkscape:export-filename="C:\Git\K.One.Tools\KSteuertafel\source\KSteuertafel\Images\Svg\JOG.png"
   inkscape:export-xdpi="270"
   inkscape:export-ydpi="270">
  <defs
     id="defs4">
    <inkscape:perspective
       sodipodi:type="inkscape:persp3d"
       inkscape:vp_x="0 : 526.18109 : 1"
       inkscape:vp_y="0 : 1000 : 0"
       inkscape:vp_z="744.09448 : 526.18109 : 1"
       inkscape:persp3d-origin="372.04724 : 350.78739 : 1"
       id="perspective10" />
    <inkscape:perspective
       id="perspective2470"
       inkscape:persp3d-origin="0.5 : 0.33333333 : 1"
       inkscape:vp_z="1 : 0.5 : 1"
       inkscape:vp_y="0 : 1000 : 0"
       inkscape:vp_x="0 : 0.5 : 1"
       sodipodi:type="inkscape:persp3d" />
    <inkscape:perspective
       id="perspective2491"
       inkscape:persp3d-origin="0.5 : 0.33333333 : 1"
       inkscape:vp_z="1 : 0.5 : 1"
       inkscape:vp_y="0 : 1000 : 0"
       inkscape:vp_x="0 : 0.5 : 1"
       sodipodi:type="inkscape:persp3d" />
    <inkscape:perspective
       id="perspective3025"
       inkscape:persp3d-origin="400 : 266.66667 : 1"
       inkscape:vp_z="800 : 400 : 1"
       inkscape:vp_y="0 : 1000 : 0"
       inkscape:vp_x="0 : 400 : 1"
       sodipodi:type="inkscape:persp3d" />
    <inkscape:perspective
       id="perspective3294"
       inkscape:persp3d-origin="0.5 : 0.33333333 : 1"
       inkscape:vp_z="1 : 0.5 : 1"
       inkscape:vp_y="0 : 1000 : 0"
       inkscape:vp_x="0 : 0.5 : 1"
       sodipodi:type="inkscape:persp3d" />
  </defs>
  <sodipodi:namedview
     id="base"
     pagecolor="#ffffff"
     bordercolor="#666666"
     borderopacity="1.0"
     inkscape:pageopacity="0.0"
     inkscape:pageshadow="2"
     inkscape:zoom="14.481547"
     inkscape:cx="12.501295"
     inkscape:cy="19.074446"
     inkscape:document-units="px"
     inkscape:current-layer="layer1"
     showgrid="true"
     inkscape:snap-guide="true"
     inkscape:snap-bbox="false"
     inkscape:snap-intersection-line-segments="true"
     inkscape:window-width="1920"
     inkscape:window-height="1153"
     inkscape:window-x="-4"
     inkscape:window-y="-4"
     showguides="true"
     inkscape:guide-bbox="true"
     inkscape:window-maximized="0">
    <inkscape:grid
       type="xygrid"
       id="grid2461"
       empspacing="3"
       dotted="true"
       visible="true"
       enabled="true"
       units="" />
  </sodipodi:namedview>
  <metadata
     id="metadata7">
    <rdf:RDF>
      <cc:Work
         rdf:about="">
        <dc:format>image/svg+xml</dc:format>
        <dc:type
           rdf:resource="http://purl.org/dc/dcmitype/StillImage" />
        <dc:title></dc:title>
      </cc:Work>
    </rdf:RDF>
  </metadata>
  <g
     inkscape:label="Ebene 1"
     inkscape:groupmode="layer"
     id="layer1">
    <path
       style="fill:none;stroke:#000000;stroke-width:1.5;stroke-linecap:butt;stroke-linejoin:miter;stroke-miterlimit:4;stroke-opacity:1;stroke-dasharray:none"
       d="m 8.2386138,8.581114 2.7587012,-5.2861338 3.583615,9.728113 3.662464,-9.7369569 4.198434,9.7468659 3.662465,-9.7557574 3.84112,9.7552414 1.875896,-4.6245317"
       id="path2478"
       sodipodi:nodetypes="cccccccc" />
    <text
       xml:space="preserve"
       style="font-size:12.63015461px;font-style:normal;font-weight:normal;line-height:125%;fill:#000000;fill-opacity:1;stroke:none;font-family:Bitstream Vera Sans"
       x="11.428195"
       y="37.931644"
       id="text2531"
       sodipodi:linespacing="125%"
       transform="scale(0.9935628,1.0064789)"><tspan
         sodipodi:role="line"
         id="tspan2533"
         x="11.428195"
         y="37.931644"
         style="font-size:10.52512455px;font-style:normal;font-variant:normal;font-weight:bold;font-stretch:normal;text-align:start;line-height:125%;writing-mode:lr-tb;text-anchor:start;font-family:Arial Narrow;-inkscape-font-specification:Arial Narrow Bold">JOG</tspan></text>
    <polyline
       style="fill:none;stroke:#0000ff;stroke-width:1"
       points="0,400"
       id="polyline3016"
       transform="translate(-428.70961,-386.49945)" />
    <text
       style="font-size:16px"
       x="-424.70963"
       y="-370.49945"
       font-size="16px"
       id="text3018" />
    <path
       style="fill:none;stroke:#000000;stroke-width:1.5;stroke-miterlimit:4;stroke-opacity:1;stroke-dasharray:none"
       d="m 7.8908055,20.894289 0.2057494,-0.50063 0.2057475,-0.480883 0.2057485,-0.456239 0.2057476,-0.427217 0.2057494,-0.393692 0.2057475,-0.356324 0.2057485,-0.315377 0.2057495,-0.271251 0.2057475,-0.224608 0.2057485,-0.175445 0.2057485,-0.124693 0.2057487,-0.072749 0.205747,-0.019878 0.20575,0.032997 0.205748,0.085734 0.205748,0.137415 0.205749,0.187768 0.205748,0.236402 0.205748,0.282514 0.205748,0.325845 0.205749,0.365866 0.205749,0.402437 0.205747,0.434771 0.20575,0.46273 0.205747,0.486317 0.205749,0.504737 0.205747,0.518387 0.20575,0.526733 0.205749,0.529781 0.205748,0.527662 0.205748,0.520107 0.205748,0.507519 0.205749,0.48963 0.205748,0.467104 0.205748,0.439806 0.20575,0.408135 0.205747,0.372226 0.205749,0.33287 0.205747,0.289934 0.20575,0.244352 0.205747,0.196117 0.205749,0.146027 0.205749,0.094482 0.205748,0.041874 0.205748,-0.010998 0.205749,-0.063871 0.205748,-0.116082 0.205748,-0.166963 0.205749,-0.216525 0.205749,-0.263566 0.205747,-0.308221 0.205749,-0.349699 0.205748,-0.387595 0.205748,-0.421785 0.205748,-0.451732 0.205749,-0.477042 0.205749,-0.497713 0.205747,-0.51335 0.20575,-0.523951 0.205747,-0.529118 0.205749,-0.529119 0.205747,-0.523951 0.20575,-0.51335 0.205748,-0.497714 0.205749,-0.477041 0.205748,-0.451733 0.205748,-0.421784 0.205749,-0.387597 0.205748,-0.349697 0.205748,-0.308223 0.20575,-0.263566 0.205747,-0.216523 0.205749,-0.166965 0.205747,-0.11608 0.20575,-0.06387 0.205747,-0.010998 0.205749,0.041873 0.205749,0.094481 0.205748,0.146027 0.205748,0.196117 0.205748,0.244352 0.205749,0.289935 0.205748,0.332869 0.205749,0.372226 0.205749,0.408134 0.205747,0.439807 0.20575,0.467103 0.205747,0.489631 0.205749,0.507518 0.205747,0.520109 0.20575,0.52766 0.205748,0.529783 0.205748,0.526734 0.205749,0.518384 0.205748,0.504737 0.205748,0.486318 0.205748,0.46273 0.205749,0.43477 0.205749,0.402439 0.205748,0.365864 0.205749,0.325846 0.205747,0.282515 0.20575,0.2364 0.205747,0.187769 0.205749,0.137415 0.205749,0.085735 0.205748,0.032995 0.205748,-0.019876 0.205748,-0.072749 0.205749,-0.124693 0.205748,-0.175446 0.205748,-0.224607 0.20575,-0.271251 0.205747,-0.315378 0.205749,-0.356324 0.205747,-0.393692 0.20575,-0.427217 0.205747,-0.456237"
       sodipodi:nodetypes="ccccccccccccccccccccccccccccccccccccccccccccccccccccccccccccccccccccccccccccccccccccccccccccccccccccccccccccccccccccccc"
       id="path18" />
  </g>
</svg>
